<svg width="48" height="48" viewBox="0 0 48 48" fill="none" xmlns="http://www.w3.org/2000/svg">
<path d="M0 24C0 10.7452 10.7452 0 24 0C37.2548 0 48 10.7452 48 24C48 37.2548 37.2548 48 24 48C10.7452 48 0 37.2548 0 24Z" fill="white"/>
<path d="M24 0.5C36.9787 0.5 47.5 11.0213 47.5 24C47.5 36.9787 36.9787 47.5 24 47.5C11.0213 47.5 0.5 36.9787 0.5 24C0.5 11.0213 11.0213 0.5 24 0.5Z" stroke="#030C01" stroke-opacity="0.15"/>
<path d="M24.7069 29.293L20.4139 25H29.9999V23H20.4139L24.7069 18.707L23.2929 17.293L16.5859 24L23.2929 30.707L24.7069 29.293Z" fill="#030C01"/>
</svg>
