<svg aria-hidden="true" style="position: absolute; width: 0; height: 0; overflow: hidden;" version="1.1"
    xmlns="http://www.w3.org/2000/svg" xmlns:xlink="http://www.w3.org/1999/xlink">
    <defs>
        <symbol id="icon-Facebook" viewBox="0 0 32 32">
            <path
                d="M29.333 16.405c0-7.409-5.969-13.415-13.333-13.415s-13.333 6.005-13.333 13.413c0 6.697 4.876 12.247 11.251 13.253v-9.373h-3.387v-3.88h3.387v-2.955c0-3.361 1.989-5.219 5.036-5.219 1.459 0 2.984 0.261 2.984 0.261v3.301h-1.68c-1.657 0-2.173 1.035-2.173 2.096v2.516h3.697l-0.591 3.877h-3.107v9.373c6.373-1.005 11.249-6.555 11.249-13.251z">
            </path>
        </symbol>
        <symbol id="icon-Instagram" viewBox="0 0 32 32">
            <path
                d="M15.999 6.16c3.205 0 3.585 0.016 4.845 0.072 1.173 0.052 1.804 0.248 2.227 0.413 0.557 0.215 0.96 0.477 1.377 0.893 0.423 0.423 0.68 0.821 0.9 1.379 0.164 0.423 0.36 1.060 0.413 2.227 0.056 1.267 0.069 1.645 0.069 4.847s-0.013 3.587-0.071 4.847c-0.051 1.173-0.248 1.804-0.412 2.227-0.203 0.54-0.508 1-0.894 1.377l-0.001 0.001c-0.423 0.423-0.821 0.68-1.379 0.9-0.421 0.164-1.059 0.36-2.227 0.413-1.265 0.056-1.644 0.069-4.845 0.069s-3.587-0.013-4.847-0.071c-1.173-0.051-1.805-0.248-2.227-0.412-0.54-0.203-1.001-0.508-1.378-0.895l-0.001-0.001c-0.389-0.377-0.695-0.837-0.891-1.352l-0.009-0.026c-0.164-0.421-0.36-1.059-0.413-2.227-0.055-1.265-0.069-1.644-0.069-4.847 0-3.2 0.013-3.584 0.071-4.845 0.052-1.173 0.248-1.805 0.413-2.227 0.215-0.559 0.477-0.96 0.893-1.379 0.378-0.389 0.838-0.696 1.353-0.891l0.026-0.009c0.423-0.164 1.060-0.36 2.227-0.413 1.261-0.055 1.64-0.069 4.847-0.069zM15.997 4.001c-3.257 0-3.665 0.015-4.945 0.071-1.275 0.057-2.151 0.263-2.911 0.559-0.833 0.318-1.542 0.79-2.126 1.386l-0.001 0.001c-0.596 0.584-1.068 1.292-1.373 2.084l-0.014 0.040c-0.296 0.764-0.503 1.635-0.56 2.909-0.052 1.284-0.068 1.692-0.068 4.949 0 3.259 0.013 3.665 0.071 4.945 0.056 1.275 0.263 2.152 0.557 2.911 0.318 0.833 0.79 1.542 1.386 2.126l0.001 0.001c0.584 0.595 1.293 1.065 2.084 1.369l0.040 0.014c0.764 0.296 1.636 0.503 2.911 0.559 1.28 0.056 1.687 0.071 4.944 0.071s3.667-0.013 4.947-0.071c1.273-0.056 2.151-0.263 2.909-0.559 0.831-0.318 1.539-0.788 2.122-1.382l0.001-0.001c0.665-0.667 1.079-1.335 1.383-2.123 0.296-0.764 0.501-1.635 0.559-2.911 0.056-1.28 0.071-1.687 0.071-4.944s-0.015-3.665-0.071-4.945c-0.057-1.275-0.263-2.151-0.559-2.911-0.305-0.838-0.774-1.551-1.372-2.132l-0.001-0.001c-0.584-0.594-1.292-1.064-2.082-1.368l-0.040-0.014c-0.764-0.296-1.635-0.503-2.911-0.559-1.284-0.061-1.691-0.076-4.948-0.076z">
            </path>
            <path
                d="M15.999 9.836c-3.337 0.088-6.008 2.814-6.008 6.163s2.671 6.076 6 6.163l0.008 0c3.365-0.051 6.073-2.791 6.073-6.163s-2.708-6.112-6.069-6.163l-0.005-0zM15.999 19.996c-2.208 0-3.997-1.79-3.997-3.997s1.79-3.997 3.997-3.997v0c2.208 0 3.998 1.79 3.998 3.998s-1.79 3.998-3.998 3.998v0zM23.843 9.592c0.001 0.018 0.001 0.040 0.001 0.062 0 0.795-0.645 1.44-1.44 1.44s-1.44-0.645-1.44-1.44c0-0.022 0-0.043 0.001-0.065l-0 0.003c0.034-0.768 0.665-1.378 1.439-1.378s1.405 0.61 1.439 1.375l0 0.003z">
            </path>
        </symbol>
        <symbol id="icon-left-arrow-alt" viewBox="0 0 32 32">
            <path
                d="M16.943 23.057l-5.724-5.724h12.781v-2.667h-12.781l5.724-5.724-1.885-1.885-8.943 8.943 8.943 8.943z">
            </path>
        </symbol>
        <symbol id="icon-map" viewBox="0 0 32 32">
            <path
                d="M16 18.667c2.941 0 5.333-2.392 5.333-5.333s-2.392-5.333-5.333-5.333-5.333 2.392-5.333 5.333 2.392 5.333 5.333 5.333zM16 10.667c1.471 0 2.667 1.196 2.667 2.667s-1.196 2.667-2.667 2.667-2.667-1.196-2.667-2.667 1.196-2.667 2.667-2.667z">
            </path>
            <path
                d="M15.227 29.085c0.215 0.155 0.483 0.247 0.773 0.247s0.558-0.093 0.777-0.25l-0.004 0.003c0.405-0.287 9.933-7.165 9.893-15.752 0-5.881-4.785-10.667-10.667-10.667s-10.667 4.785-10.667 10.66c-0.039 8.593 9.488 15.472 9.893 15.759zM16 5.333c4.413 0 8 3.588 8 8.007 0.028 5.917-5.851 11.231-8 12.973-2.147-1.744-8.027-7.059-8-12.98 0-4.412 3.588-8 8-8z">
            </path>
        </symbol>
        <symbol id="icon-menu" viewBox="0 0 32 32">
            <path
                d="M5.333 8h21.333v2.667h-21.333zM5.333 14.667h21.333v2.667h-21.333zM5.333 21.333h21.333v2.667h-21.333z">
            </path>
        </symbol>
        <symbol id="icon-phone" viewBox="0 0 32 32">
            <path
                d="M23.609 16.391c-0.241-0.241-0.575-0.39-0.943-0.39s-0.701 0.149-0.943 0.39l-2.124 2.125c-0.985-0.293-2.824-0.96-3.989-2.125s-1.832-3.004-2.125-3.989l2.125-2.125c0.241-0.241 0.39-0.575 0.39-0.943s-0.149-0.701-0.39-0.943l-5.333-5.333c-0.241-0.241-0.575-0.39-0.943-0.39s-0.701 0.149-0.943 0.39l-3.617 3.616c-0.507 0.507-0.792 1.203-0.781 1.913 0.031 1.899 0.533 8.493 5.731 13.691s11.792 5.699 13.693 5.731h0.036c0.704 0 1.369-0.277 1.873-0.781l3.616-3.616c0.241-0.241 0.39-0.575 0.39-0.943s-0.149-0.701-0.39-0.943v0zM23.44 25.34c-1.664-0.028-7.357-0.475-11.831-4.949-4.488-4.488-4.923-10.201-4.949-11.832l2.673-2.673 3.448 3.448-1.724 1.724c-0.242 0.241-0.391 0.575-0.391 0.943 0 0.097 0.010 0.191 0.030 0.282l-0.002-0.009c0.032 0.153 0.815 3.789 3.028 6.003s5.849 2.996 6.003 3.028c0.082 0.018 0.177 0.028 0.274 0.028 0.368 0 0.701-0.149 0.942-0.39l1.725-1.724 3.448 3.448z">
            </path>
        </symbol>
        <symbol id="icon-right-arrow-alt" viewBox="0 0 32 32">
            <path d="M15.057 23.057l1.885 1.885 8.943-8.943-8.943-8.943-1.885 1.885 5.724 5.724h-12.781v2.667h12.781z">
            </path>
        </symbol>
        <symbol id="icon-top-arrow-alt" viewBox="0 0 32 32">
            <path d="M24 17.885l1.885-1.885-8.943-8.943-8.943 8.943 1.885 1.885 5.724-5.724v12.781h2.667v-12.781z">
            </path>
        </symbol>
        <symbol id="icon-X" viewBox="0 0 32 32">
            <path
                d="M22.901 5.657h3.68l-8.040 9.036 9.459 12.297h-7.405l-5.8-7.459-6.639 7.459h-3.683l8.6-9.667-9.073-11.667h7.593l5.244 6.816zM21.609 24.824h2.040l-13.164-17.115h-2.187z">
            </path>
        </symbol>
        <symbol id="icon-Flower" viewBox="0 0 36 32">
            <path fill="#353c3a" style="fill: var(--color1, #353c3a)"
                d="M7.211 3.076c0.554-0.837 1.169-1.547 2.012-2.108 1.169-0.779 2.562-1.171 3.957-0.862 1.124 0.249 2.039 1.006 2.655 1.949 0.634 1.335 1.19 2.664 1.601 4.085 0.084 0.289 0.191 0.864 0.309 1.501 0.21 1.131 0.456 2.459 0.678 2.743 0.201 1.957-1.249 4.827-2.466 6.323-0.299 0.37-0.612 0.702-0.949 1.008l-0.007 0.006c2.124 3.475 3.328 7.537 3.712 11.585 1.949-6.894 2.94-10.028 3.96-13.149l-1.057 3.741c-1.585-2.444-1.448-6.418-0.853-9.17 0.591-2.74 1.916-5.719 4.375-7.261 0.218-0.138 0.494-0.295 0.777-0.442l0.067-0.032c1.736 2.165 2.388 4.571 2.088 7.322-0.402 3.695-2.476 7.15-5.373 9.445l-0.12 0.095c-0.23 0.818-0.495 1.634-0.759 2.45-0.363 1.118-0.727 2.237-1.001 3.365l0.048-0.019q0.045-0.017 0.089-0.036c0.329-0.147 0.916-1.058 1.406-1.818 0.251-0.39 0.477-0.739 0.628-0.925 2.55-3.134 6.014-5.006 10.119-4.917 0.772 0.017 1.697 0.045 2.432 0.262 0.354 0.104 0.414 0.16 0.606 0.467-0.117 2.172-2.978 5.606-4.619 7.079-3.384 3.037-7.587 4.784-11.837 6.235l-2.717-0.603-0.704-0.213 0.048-0.125c-0.088-0.342-0.593-0.438-0.948-0.505l-0.005-0.001-0.093-0.018q-0.623-0.123-1.257-0.245l-0.007-0.001c-4.626-0.894-9.598-1.854-12.655-5.759-0.522-0.668-1.441-1.988-1.334-2.826 0.708-0.604 2.797-0.815 3.704-0.866 4.587-0.258 8.919 2.184 11.768 5.634 0.284 0.343 0.542 0.766 0.801 1.191 0.365 0.599 0.734 1.202 1.181 1.595l0.177-0.329c-0.497-3.887-1.401-7.368-3.544-10.683-1.503 0.444-2.897 0.572-4.459 0.286-0.998-0.183-2.607-0.684-3.21-1.544-0.175-0.276-1.185-0.774-2.172-1.262-0.766-0.378-1.518-0.749-1.856-1.004-1.428-1.078-2.135-2.51-2.392-4.258l-0.006-0.148c-0.065-1.947 0.407-3.686 1.79-5.119 1.451-1.503 3.372-2.086 5.415-2.121z">
            </path>
            <path fill="#eae9e8" style="fill: var(--color2, #eae9e8)"
                d="M7.211 3.076c0.555-0.837 1.169-1.547 2.012-2.108 1.169-0.779 2.562-1.171 3.956-0.862 1.125 0.249 2.039 1.006 2.655 1.949-1.926 0.556-2.583 1.295-3.701 2.948-0.294 0.805-0.545 1.648-0.617 2.506 1.355 1.192 2.226 2.533 2.347 4.379 0.014 0.221 0.031 0.262-0.090 0.44l-0.492-0.145c-0.439 0.32-0.549 0.865-0.631 1.376-0.146 0.912-0.167 1.896-0.149 2.82-1.131-0.331-2.126-0.445-3.304-0.39-0.969 0.239-1.882 0.518-2.765 0.999-0.311-0.489-3.255-1.682-4.028-2.266-1.429-1.078-2.135-2.51-2.392-4.258l-0.006-0.147c-0.064-1.947 0.407-3.686 1.79-5.119 1.451-1.503 3.372-2.086 5.415-2.121z">
            </path>
            <path fill="#db8778" style="fill: var(--color3, #db8778)"
                d="M7.211 3.076c0.555-0.837 1.169-1.547 2.012-2.108 1.169-0.779 2.562-1.171 3.956-0.862 1.125 0.249 2.039 1.006 2.655 1.949-1.926 0.556-2.583 1.295-3.701 2.948-0.294 0.805-0.545 1.648-0.617 2.506l-1.353-0.545c-0.54 0.014-1.603-0.094-2.066 0.139l-0.596 0.289c-0.23 0.209-0.498 0.523-0.763 0.675l-0.5 0.861-0.346 0.021c-1.608-0.029-3.127 0.146-4.599 0.839-0.416 0.196-0.853 0.545-1.282 0.675l-0.006-0.147c-0.064-1.947 0.407-3.686 1.79-5.119 1.451-1.503 3.372-2.086 5.415-2.121z">
            </path>
            <path fill="#353c3a" style="fill: var(--color1, #353c3a)"
                d="M10.164 6.964c0.246-0.658 0.454-1.468 0.962-1.97 0.459-0.185 0.552-0.124 1.007 0.009-0.294 0.805-0.545 1.648-0.616 2.506zM7.502 7.393c-0.486-0.334-1.045-0.674-1.438-1.118-0.255-0.288-0.389-0.602-0.371-0.986l0.256-0.126c1.077 0.236 1.537 1.114 2.15 1.941zM5.893 8.949c-0.203-0.025-0.431-0.043-0.628-0.101-0.328-0.097-0.381-0.232-0.506-0.514 0.14-0.196 0.174-0.25 0.396-0.348 0.538-0.235 1.056-0.116 1.583 0.081l-0.5 0.861zM8.576 3.949c0.181 0.079 0.36 0.172 0.474 0.34 0.461 0.675 0.384 2.022 0.3 2.804l-0.64-0.19c-0.088-0.096-0.156-0.172-0.21-0.292-0.378-0.835-0.221-1.832 0.075-2.663z">
            </path>
            <path fill="#ebb19f" style="fill: var(--color4, #ebb19f)"
                d="M5.894 8.949l0.346-0.021c-0.422 1.591-0.649 3.201 0.233 4.696 0.63 1.067 1.653 1.786 2.725 2.365-0.969 0.239-1.883 0.518-2.765 0.999-0.311-0.489-3.255-1.682-4.028-2.266-1.429-1.078-2.135-2.51-2.392-4.258 0.43-0.13 0.866-0.479 1.282-0.675 1.472-0.693 2.991-0.868 4.599-0.84z">
            </path>
            <path fill="#97a898" style="fill: var(--color5, #97a898)"
                d="M20.814 25.672c0.045-0.018 0.092-0.034 0.137-0.055 0.497-0.222 1.587-2.196 2.033-2.743 2.55-3.134 6.014-5.006 10.119-4.917 0.772 0.016 1.697 0.045 2.431 0.262 0.355 0.104 0.414 0.16 0.607 0.467-0.117 2.172-2.978 5.606-4.619 7.079-3.383 3.037-7.587 4.784-11.837 6.235 2.208-2.789 4.791-5.526 7.554-7.768 0.961-0.78 5.020-3.258 5.315-3.768-0.131-0.085-0.149-0.139-0.311-0.115-3.67 0.533-10.74 8.055-12.936 10.9 0.277-1.937 0.755-3.765 1.507-5.576zM16.264 31.183l0.048-0.125c-0.096-0.375-0.694-0.454-1.045-0.524-4.961-0.989-10.581-1.742-13.919-6.006-0.523-0.667-1.442-1.988-1.335-2.826 0.709-0.605 2.798-0.815 3.704-0.866 4.587-0.258 8.918 2.184 11.768 5.634 0.683 0.826 1.218 2.115 1.982 2.786l0.177-0.329c0.078 0.463 0.11 0.827 0.042 1.297-0.551-0.176-1.422-1.305-1.94-1.714-2.924-2.312-8.052-5.457-11.921-5.346l-0.1 0.136c0.964 0.749 2.592 1.047 3.742 1.445 3.468 1.2 7.335 3.476 9.545 6.469l-0.119 0.133c-0.192-0.044-0.463-0.069-0.631-0.163zM25.979 2.996c1.736 2.165 2.388 4.571 2.088 7.322-0.402 3.695-2.476 7.15-5.373 9.446l-0.12 0.094c0.67-3.297 1.167-6.772 2.149-9.983 0.215-0.698 0.692-1.96 0.338-2.624l-0.248 0.099c-1.512 2.388-2.278 9.42-3.199 12.551-1.584-2.444-1.448-6.418-0.853-9.17 0.591-2.74 1.916-5.719 4.375-7.261 0.273-0.171 0.557-0.325 0.844-0.473z">
            </path>
            <path fill="#ebb19f" style="fill: var(--color4, #ebb19f)"
                d="M12.134 5.003c1.117-1.653 1.774-2.392 3.701-2.949 0.634 1.335 1.189 2.664 1.601 4.085 0.233 0.802 0.64 3.8 0.986 4.244-1.231 0.248-2.086 0.909-2.771 1.949-0.381 0.579-0.679 1.24-0.955 1.875-0.305-0.563-0.799-1.257-0.922-1.881 0.12-0.179 0.104-0.22 0.090-0.44-0.12-1.846-0.991-3.187-2.347-4.379 0.072-0.858 0.323-1.701 0.617-2.506z">
            </path>
        </symbol>
        <symbol id="icon-close" viewBox="-9 -9 48 48" preserveAspectRatio="xMidYMid meet">
            <path
                d="M26.397 0l-11.315 11.312-11.312-11.312-3.771 3.771 11.312 11.312-11.312 11.312 3.771 3.771 11.312-11.312 11.315 11.312 3.771-3.771-11.312-11.312 11.312-11.312-3.771-3.771z">
            </path>
        </symbol>
        <symbol id="icon-company-logo" viewBox="0 0 75 32">
            <path fill="#353c3a" style="fill: var(--color1, #353c3a)"
                d="M32.084 0.664c-0.412 0.276-0.714 0.623-0.985 1.035-1 0.017-1.94 0.302-2.651 1.040-0.677 0.703-0.908 1.556-0.876 2.512l0.003 0.073c0.126 0.858 0.472 1.56 1.172 2.089 0.165 0.125 0.533 0.308 0.908 0.493 0.484 0.239 0.978 0.484 1.063 0.619 0.295 0.422 1.084 0.668 1.572 0.758 0.764 0.14 1.447 0.077 2.183-0.141 1.049 1.627 1.492 3.335 1.735 5.243l-0.086 0.161c-0.22-0.192-0.4-0.489-0.579-0.782-0.131-0.224-0.26-0.415-0.401-0.597l0.009 0.012c-1.396-1.692-3.516-2.891-5.762-2.764-0.444 0.025-1.467 0.129-1.813 0.425-0.052 0.412 0.397 1.060 0.653 1.387 1.497 1.916 3.931 2.388 6.196 2.827l0.667 0.13c0.173 0.033 0.42 0.080 0.464 0.248l-0.024 0.061c-2.312-0.389-4.727-0.108-6.676 1.289-1.667 1.195-2.622 3.080-2.946 5.075-0.383 2.367 0.017 5.017 1.442 6.988 1.152 1.594 2.853 2.604 4.791 2.911 2.141 0.339 4.468-0.060 6.237-1.355 1.68-1.229 2.63-3.109 2.938-5.138 0.371-2.441 0.030-5.036-1.464-7.056-0.646-0.873-1.408-1.467-2.335-2.013l-0.060-0.035c-0.115-0.062-0.221-0.122-0.252-0.265 2.080-0.712 4.139-1.57 5.796-3.060 0.803-0.723 2.204-2.408 2.261-3.474-0.094-0.151-0.124-0.178-0.298-0.229-0.359-0.107-0.812-0.12-1.19-0.128-2.009-0.044-3.705 0.875-4.954 2.412-0.096 0.127-0.197 0.275-0.291 0.427l-0.015 0.026c-0.24 0.373-0.528 0.82-0.689 0.892q-0.021 0.010-0.043 0.018l-0.024 0.009c0.134-0.553 0.312-1.102 0.49-1.651 0.13-0.4 0.26-0.8 0.372-1.202l0.060-0.047c1.418-1.126 2.433-2.821 2.631-4.635 0.147-1.349-0.172-2.531-1.022-3.593-0.173 0.088-0.308 0.165-0.44 0.247l0.027-0.015c-1.204 0.756-1.852 2.219-2.142 3.564-0.291 1.35-0.358 3.3 0.418 4.5 0.020-0.31-0.465 1.227-0.937 2.771l-0.485 1.845c-0.188-1.987-0.777-3.98-1.817-5.684q0.253-0.231 0.468-0.498c0.596-0.734 1.307-2.142 1.208-3.102-0.109-0.14-0.229-0.791-0.332-1.347-0.058-0.313-0.109-0.596-0.151-0.737-0.201-0.698-0.473-1.349-0.783-2.004-0.302-0.463-0.749-0.835-1.3-0.956-0.683-0.151-1.364 0.041-1.937 0.423zM32.802 15.994c0.964-0.095 1.855 0 2.693 0.528 1.355 0.853 2.011 2.448 2.351 3.947 0.583 2.574 0.58 6.757-0.899 9.055-0.603 0.936-1.378 1.392-2.443 1.622-0.993 0.107-1.938 0.009-2.789-0.554-1.398-0.922-2.012-2.676-2.335-4.245-0.542-2.629-0.616-6.412 0.942-8.742 0.624-0.932 1.401-1.389 2.479-1.611z">
            </path>
            <path fill="#eae9e8" style="fill: var(--color2, #eae9e8)"
                d="M31.099 1.698c0.271-0.411 0.572-0.758 0.985-1.034 0.572-0.382 1.253-0.575 1.937-0.423 0.551 0.122 0.998 0.493 1.3 0.956-0.942 0.273-1.265 0.636-1.812 1.446-0.144 0.396-0.267 0.809-0.302 1.23 0.664 0.585 1.091 1.243 1.149 2.148 0.007 0.108 0.015 0.129-0.044 0.216l-0.24-0.071c-0.216 0.157-0.269 0.424-0.309 0.676-0.071 0.447-0.083 0.93-0.074 1.383-0.405-0.126-0.871-0.199-1.353-0.199-0.093 0-0.185 0.003-0.277 0.008l0.013-0.001c-0.474 0.117-0.921 0.254-1.353 0.49-0.152-0.24-1.594-0.825-1.972-1.111-0.699-0.53-1.044-1.232-1.171-2.090l-0.003-0.073c-0.032-0.956 0.199-1.809 0.876-2.511 0.711-0.738 1.652-1.024 2.652-1.041z">
            </path>
            <path fill="#db8778" style="fill: var(--color3, #db8778)"
                d="M31.099 1.698c0.271-0.411 0.572-0.758 0.985-1.034 0.572-0.382 1.253-0.575 1.937-0.423 0.551 0.122 0.998 0.493 1.3 0.956-0.942 0.273-1.265 0.636-1.812 1.446-0.144 0.396-0.267 0.809-0.302 1.23l-0.662-0.267c-0.264 0.006-0.785-0.047-1.012 0.068l-0.292 0.142c-0.113 0.102-0.244 0.256-0.373 0.331l-0.244 0.422-0.169 0.011c-0.788-0.014-1.532 0.071-2.252 0.412-0.204 0.096-0.418 0.267-0.628 0.332l-0.003-0.073c-0.032-0.956 0.199-1.809 0.876-2.511 0.711-0.738 1.652-1.024 2.652-1.041z">
            </path>
            <path fill="#353c3a" style="fill: var(--color1, #353c3a)"
                d="M32.545 3.606c0.12-0.323 0.222-0.72 0.471-0.966 0.224-0.092 0.269-0.062 0.492 0.004-0.143 0.396-0.267 0.809-0.302 1.23zM31.241 3.817c-0.238-0.164-0.512-0.331-0.704-0.549-0.113-0.118-0.183-0.278-0.183-0.455 0-0.010 0-0.020 0.001-0.030l-0 0.001 0.125-0.062c0.527 0.116 0.753 0.547 1.053 0.953zM30.453 4.58c-0.099-0.012-0.211-0.021-0.308-0.050-0.16-0.047-0.187-0.114-0.247-0.252 0.068-0.097 0.084-0.123 0.194-0.171 0.263-0.116 0.517-0.058 0.775 0.039l-0.244 0.422zM31.767 2.127c0.094 0.034 0.173 0.091 0.231 0.165l0.001 0.001c0.226 0.332 0.188 0.993 0.147 1.377l-0.313-0.093c-0.041-0.041-0.076-0.088-0.102-0.14l-0.001-0.003c-0.185-0.41-0.108-0.9 0.037-1.307z">
            </path>
            <path fill="#ebb19f" style="fill: var(--color4, #ebb19f)"
                d="M30.453 4.58l0.17-0.011c-0.206 0.781-0.317 1.571 0.115 2.304 0.308 0.524 0.809 0.876 1.333 1.161-0.474 0.117-0.921 0.254-1.354 0.49-0.151-0.24-1.593-0.825-1.972-1.111-0.7-0.53-1.045-1.232-1.171-2.090 0.21-0.064 0.424-0.236 0.628-0.332 0.72-0.34 1.464-0.426 2.252-0.412z">
            </path>
            <path fill="#97a898" style="fill: var(--color5, #97a898)"
                d="M37.758 12.787l0.067-0.027c0.244-0.109 0.778-1.078 0.996-1.347 1.249-1.538 2.945-2.456 4.954-2.412 0.378 0.008 0.831 0.022 1.191 0.128 0.172 0.052 0.202 0.078 0.296 0.229-0.057 1.067-1.458 2.751-2.261 3.474-1.656 1.49-3.714 2.347-5.795 3.060 1.081-1.369 2.346-2.711 3.698-3.812 0.471-0.383 2.458-1.6 2.603-1.849-0.065-0.043-0.073-0.068-0.153-0.058-1.796 0.262-5.258 3.954-6.332 5.349 0.136-0.951 0.37-1.849 0.738-2.737zM35.531 15.491l0.023-0.062c-0.046-0.183-0.34-0.222-0.511-0.256-2.428-0.485-5.18-0.855-6.814-2.948-0.256-0.327-0.706-0.975-0.653-1.387 0.347-0.296 1.369-0.4 1.813-0.425 2.245-0.126 4.366 1.072 5.762 2.764 0.334 0.406 0.596 1.038 0.97 1.367l0.087-0.161c0.038 0.227 0.053 0.405 0.020 0.636-0.269-0.087-0.696-0.64-0.95-0.842-1.431-1.134-3.941-2.677-5.836-2.622l-0.049 0.066c0.471 0.368 1.269 0.514 1.831 0.709 1.698 0.588 3.591 1.705 4.674 3.173l-0.059 0.066c-0.093-0.021-0.226-0.034-0.308-0.080zM40.287 1.659c0.85 1.062 1.169 2.244 1.022 3.593-0.197 1.813-1.212 3.508-2.631 4.635l-0.059 0.047c0.328-1.618 0.572-3.324 1.052-4.9 0.105-0.342 0.338-0.962 0.165-1.288l-0.122 0.049c-0.74 1.172-1.115 4.622-1.565 6.159-0.776-1.2-0.709-3.149-0.418-4.5 0.29-1.345 0.938-2.807 2.142-3.564q0.201-0.124 0.412-0.231z">
            </path>
            <path fill="#ebb19f" style="fill: var(--color4, #ebb19f)"
                d="M33.508 2.644c0.547-0.811 0.868-1.173 1.812-1.446 0.311 0.655 0.582 1.307 0.784 2.004 0.114 0.394 0.313 1.865 0.483 2.083-0.603 0.122-1.020 0.446-1.356 0.956-0.187 0.284-0.332 0.609-0.468 0.921-0.149-0.276-0.391-0.618-0.452-0.924 0.060-0.087 0.052-0.108 0.044-0.216-0.059-0.906-0.485-1.564-1.149-2.148 0.036-0.421 0.158-0.836 0.302-1.23z">
            </path>
            <path fill="#353c3a" style="fill: var(--color1, #353c3a)"
                d="M62.268 15.363c-0.094-0.002-0.205-0.003-0.316-0.003-0.495 0-0.984 0.024-1.467 0.070l0.061-0.005c-1.394 0.282-3.067 0.756-3.9 2.010-0.416 0.626-0.602 1.398-0.453 2.14 0.108 0.545 0.4 1.044 0.872 1.35 0.437 0.284 1.064 0.412 1.575 0.298 0.432-0.105 0.788-0.371 1.009-0.73l0.004-0.007c0.172-0.281 0.274-0.621 0.274-0.984 0-0.154-0.018-0.305-0.053-0.448l0.003 0.013c-0.069-0.293-0.27-0.524-0.465-0.749-0.324-0.373-0.632-0.729-0.296-1.322 0.274-0.483 0.922-0.771 1.436-0.889 0.796-0.184 1.746-0.128 2.449 0.318 0.687 0.436 1.071 1.153 1.241 1.932 0.21 0.968 0.259 2.38-0.305 3.224-0.512 0.767-1.813 1.068-3.276 1.406-2.095 0.485-4.521 1.046-5.423 3.164-0.348 0.813-0.244 1.649-0.165 2.278 0.044 0.349 0.079 0.636 0.025 0.818l0.028 0.038c0.113 0.152 0.204 0.316 0.296 0.48 0.067 0.121 0.133 0.24 0.209 0.356 0.628 0.966 1.476 1.386 2.595 1.558 1.689 0.26 3.563-0.111 4.948-1.138 0.331-0.245 0.942-0.796 1.008-1.22l0.017 0.022 0.007 0.009c0.202 0.304 0.275 0.608 0.342 0.893 0.142 0.601 0.267 1.122 1.544 1.394 0.958 0.204 2.442 0.1 3.292-0.465 0.174-0.116 0.354-0.295 0.388-0.509 0.002-0.020 0.004-0.045 0.005-0.070l0-0.002-0.001-0.060-0.037-0.036c-0.063-0.062-0.075-0.074-0.19-0.071-0.169 0.005-0.341 0.036-0.514 0.067-0.439 0.078-0.876 0.156-1.244-0.202-0.544-0.531-0.533-1.76-0.526-2.549v-0.174q0.020-2.56 0.012-5.117c-0.006-3.857-0.13-6.942-5.010-7.088zM64.013 22.483l0.21-0.006 0.064 0.089c0.060 0.49 0.043 0.983 0.026 1.476q-0.014 0.34-0.017 0.678c0 0.297 0.010 0.6 0.020 0.905 0.025 0.729 0.049 1.469-0.071 2.173-0.068 0.397-0.213 0.778-0.427 1.12-0.471 0.749-1.248 1.216-2.103 1.398-1.013 0.216-1.807-0.008-2.659-0.554l-0.15-0.264c-0.498-0.874-0.796-1.396-0.694-2.561 0.189-2.202 2.377-3.020 4.173-3.692l0.235-0.088q0.102-0.039 0.22-0.080h0.002c0.377-0.135 0.852-0.305 1.11-0.536l0.025-0.023z">
            </path>
            <path fill="#eae9e8" style="fill: var(--color2, #eae9e8)" d="M62.55 23.183l-0.067 0.025 0.039-0.014z">
            </path>
            <path fill="#353c3a" style="fill: var(--color1, #353c3a)"
                d="M11.943 6.668c0.356-0.039 0.742-0.026 1.1 0.009 1.426 0.133 2.668 0.826 3.519 1.855l0.007 0.009c0.587 0.724 0.93 1.604 0.822 2.543-0.062 0.55-0.268 1.082-0.715 1.432-0.411 0.312-0.932 0.5-1.497 0.5-0.093 0-0.185-0.005-0.275-0.015l0.011 0.001c-0.517-0.068-0.96-0.34-1.253-0.729l-0.003-0.005c-0.276-0.36-0.395-0.896-0.327-1.342 0.148-0.979 1.173-1.069 1.824-1.563 0.175-0.132 0.249-0.267 0.28-0.481-0.040-0.252-0.142-0.415-0.311-0.596-0.626-0.676-1.58-0.987-2.483-1.009-0.777-0.020-1.547 0.188-2.111 0.746-1.348 1.332-0.978 5.533-0.974 7.356 0.902 0.009 6.068-0.151 6.534 0.192 0.046 0.151 0.027 0.24-0.013 0.391-0.354 0.242-5.621 0.114-6.526 0.127l0.008 5.213c0.465 0.001 0.932 0.007 1.396-0.012 3.271-0.137 2.292-2.498 3.078-3.28 0.083-0.082 0.124-0.060 0.239-0.060 0.228 0.302 0.124 5.947 0.124 6.795 0.003 0.199-0.012 0.393-0.028 0.591l-0.14 0.115c-0.181 0.003-0.227 0.030-0.369-0.091-0.111-0.916-0.373-2.078-1.057-2.735-0.847-0.814-2.163-0.644-3.243-0.629-0.007 1.556-0.351 7.225 0.646 8.306 0.546 0.591 1.547 0.514 1.931 0.996l-0.018 0.105c-0.213 0.118-0.476 0.124-0.715 0.134-0.688 0.028-6.862 0.014-7.202-0.089-0.068-0.021-0.042-0.025-0.112-0.016q-0.020 0.004-0.039 0.009l-0.034-0.082c0.092-0.348 1.506-0.622 1.911-1.044 0.885-0.925 0.564-6.711 0.556-8.307-0.622-0.010-1.868 0.207-2.335-0.177-0.087-0.169-0.111-0.201-0.092-0.388 0.345-0.309 1.929-0.162 2.421-0.163q0.011-2.608-0.004-5.217c-0.756 0.014-1.771 0.148-2.457-0.214l-0.018-0.217c0.471-0.394 1.865-0.249 2.479-0.244-0.028-2.258 0.005-4.947 1.502-6.796 0.992-1.224 2.443-1.764 3.962-1.923zM22.892 5.524l0.084 0.018c0.116 0.134 0.116 0.207 0.124 0.379 0.098 1.871-0.007 3.803-0.008 5.68l-0.003 11.88c0 1.426-0.204 5.262 0.249 6.381 0.503 1.243 1.678 0.85 2.057 1.434l-0.059 0.156c-0.343 0.133-6.244 0.062-7.195 0.091-0.076 0-0.061 0.009-0.117-0.014-0.144-0.057-0.14-0.114-0.201-0.247 0.142-0.491 1.191-0.293 1.62-0.769 0.371-0.412 0.516-0.96 0.583-1.497 0.14-1.111 0.098-2.254 0.097-3.372l-0.004-4.711-0.004-6.747c0.002-1.498 0.040-3.004-0.032-4.5-0.080-1.644-0.023-1.952-1.65-2.455-0.164-0.051-0.398-0.106-0.52-0.235-0.076-0.080-0.053-0.108-0.055-0.212l0.068 0.009c0.128-0.149 0.719-0.181 0.925-0.208 1.413-0.18 2.759-0.407 4.039-1.058zM46.88 15.274l0.221 0.027c0.018 0.028 0.046 0.068 0.059 0.101 0.164 0.429 0.075 3.306-0.092 3.697 0.237-0.206 0.34-0.498 0.48-0.773 0.5-0.969 1.116-1.82 2.113-2.329 1.035-0.529 2.378-0.804 3.5-0.427 0.624 0.21 1.127 0.64 1.413 1.235 0.298 0.62 0.356 1.35 0.117 2-0.196 0.528-0.588 0.999-1.107 1.236-0.49 0.224-1.034 0.204-1.53 0.006-0.502-0.2-0.927-0.558-1.132-1.067-0.394-0.978 0.137-1.331 0.442-2.134 0.060-0.156 0.048-0.204-0.020-0.349-0.209-0.101-0.429-0.058-0.646-0.006-2.761 0.662-3.409 3.926-3.465 6.362-0.013 0.6 0.009 2.702 0.009 2.702s-0.023 2.021 0 2.602c0.054 1.411 0.151 2.367 1.66 2.82 0.22 0.067 0.501 0.108 0.669 0.273 0.044 0.044 0.023 0.124 0.022 0.184l-0.051 0.039c-0.093 0.064-7.12 0.089-7.509-0.009l-0.047-0.163c0.163-0.613 1.343-0.306 1.798-0.885 0.227-0.288 0.314-0.664 0.365-1.020 0.277-1.908 0.144-3.968 0.14-5.9-0.004-1.6 0.098-3.303-0.119-4.884-0.302-2.199-1.103-1.166-2.012-1.86-0.080-0.173-0.067-0.192-0.024-0.38 1.549-0.293 3.269-0.307 4.693-1.070z">
            </path>
        </symbol>
    </defs>
</svg>